<svg width="48" height="48" viewBox="0 0 48 48" fill="none" xmlns="http://www.w3.org/2000/svg">
<path d="M6.15369 42H9.89541V41.2977H6.94306V35.6354H6.15369V42ZM11.5636 42L12.1976 40.2099H14.7584L15.3924 42H16.2252L13.8944 35.6354H13.0616L10.7308 42H11.5636ZM12.4431 39.5138L13.4531 36.6609H13.5029L14.5129 39.5138H12.4431ZM21.1813 35.6354V39.7811C21.1813 40.7072 20.5474 41.3722 19.4969 41.3722C18.4465 41.3722 17.8063 40.7072 17.8063 39.7811V35.6354H17.017V39.8432C17.017 41.1547 17.9928 42.1119 19.4969 42.1119C20.9949 42.1119 21.9769 41.1547 21.9769 39.8432V35.6354H21.1813ZM28.3719 35.6354H27.595V40.6015H27.5328L24.0832 35.6354H23.3187V42H24.1081V37.0463H24.1703L27.6136 42H28.3719V35.6354ZM34.0556 37.6367H34.8511C34.615 36.3191 33.5708 35.5483 32.2842 35.5483C30.6495 35.5483 29.4686 36.8039 29.4686 38.8177C29.4686 40.8315 30.6495 42.087 32.2842 42.087C33.577 42.087 34.6212 41.3039 34.8511 40.0048H34.0556C33.8691 40.875 33.1232 41.3474 32.2842 41.3474C31.1343 41.3474 30.2393 40.4586 30.2393 38.8177C30.2393 37.1768 31.1343 36.288 32.2842 36.288C33.1232 36.288 33.8753 36.7604 34.0556 37.6367ZM35.8959 42H36.6852V39.1595H40.054V42H40.8496V35.6354H40.054V38.4634H36.6852V35.6354H35.8959V42Z" fill="#989A9D"/>
<path d="M29.5556 10.2H31.7778C32.3671 10.2 32.9324 10.4318 33.3491 10.8444C33.7659 11.2569 34 11.8165 34 12.4V27.8C34 28.3835 33.7659 28.9431 33.3491 29.3556C32.9324 29.7682 32.3671 30 31.7778 30H16.2222C15.6329 30 15.0676 29.7682 14.6509 29.3556C14.2341 28.9431 14 28.3835 14 27.8V12.4C14 11.19 15 10.2 16.2222 10.2H18.4444V9.1C18.4444 8.80826 18.5615 8.52847 18.7699 8.32218C18.9783 8.11589 19.2609 8 19.5556 8C19.8502 8 20.1329 8.11589 20.3412 8.32218C20.5496 8.52847 20.6667 8.80826 20.6667 9.1V10.2H27.3333V9.1C27.3333 8.80826 27.4504 8.52847 27.6588 8.32218C27.8671 8.11589 28.1498 8 28.4444 8C28.7391 8 29.0217 8.11589 29.2301 8.32218C29.4385 8.52847 29.5556 8.80826 29.5556 9.1V10.2ZM27.3333 12.4H20.6667V13.5C20.6667 13.7917 20.5496 14.0715 20.3412 14.2778C20.1329 14.4841 19.8502 14.6 19.5556 14.6C19.2609 14.6 18.9783 14.4841 18.7699 14.2778C18.5615 14.0715 18.4444 13.7917 18.4444 13.5V12.4H16.2222V16.8H31.7778V12.4H29.5556V13.5C29.5556 13.7917 29.4385 14.0715 29.2301 14.2778C29.0217 14.4841 28.7391 14.6 28.4444 14.6C28.1498 14.6 27.8671 14.4841 27.6588 14.2778C27.4504 14.0715 27.3333 13.7917 27.3333 13.5V12.4ZM31.7778 19H16.2222V27.8H31.7778V19Z" fill="#989A9D"/>
<path d="M22.48 26.355L24.3175 22.2H22V21H25.8625V21.855L23.98 26.355H22.48Z" fill="#989A9D"/>
</svg>
