<svg width="48" height="48" viewBox="0 0 48 48" fill="none" xmlns="http://www.w3.org/2000/svg">
<path d="M8.32559 37.6367H9.12117C8.88498 36.3191 7.84078 35.5483 6.55418 35.5483C4.91951 35.5483 3.73857 36.8039 3.73857 38.8177C3.73857 40.8315 4.91951 42.087 6.55418 42.087C7.847 42.087 8.89119 41.3039 9.12117 40.0048H8.32559C8.13912 40.875 7.39327 41.3474 6.55418 41.3474C5.40432 41.3474 4.50929 40.4586 4.50929 38.8177C4.50929 37.1768 5.40432 36.288 6.55418 36.288C7.39327 36.288 8.14534 36.7604 8.32559 37.6367ZM10.1659 42H10.9553V39.1595H14.324V42H15.1196V35.6354H14.324V38.4634H10.9553V35.6354H10.1659V42ZM16.4589 42H20.3622V41.2977H17.2482V39.1595H20.1136V38.4634H17.2482V36.3377H20.3187V35.6354H16.4589V42ZM25.8422 37.6367H26.6378C26.4016 36.3191 25.3574 35.5483 24.0708 35.5483C22.4361 35.5483 21.2552 36.8039 21.2552 38.8177C21.2552 40.8315 22.4361 42.087 24.0708 42.087C25.3636 42.087 26.4078 41.3039 26.6378 40.0048H25.8422C25.6557 40.875 24.9099 41.3474 24.0708 41.3474C22.9209 41.3474 22.0259 40.4586 22.0259 38.8177C22.0259 37.1768 22.9209 36.288 24.0708 36.288C24.9099 36.288 25.6619 36.7604 25.8422 37.6367ZM27.6825 42H28.4719V39.9489L29.2674 39.0539L31.4553 42H32.4187L29.7585 38.5069L32.4187 35.6354H31.3869L28.5527 38.7804H28.4719V35.6354H27.6825V42ZM33.2108 42H37.1141V41.2977H34.0002V39.1595H36.8655V38.4634H34.0002V36.3377H37.0706V35.6354H33.2108V42ZM40.2323 42C42.1715 42 43.2654 40.7942 43.2654 38.8052C43.2654 36.8287 42.1715 35.6354 40.3131 35.6354H38.2557V42H40.2323ZM39.0451 41.2977V36.3377H40.2633C41.7426 36.3377 42.4947 37.27 42.4947 38.8052C42.4947 40.3529 41.7426 41.2977 40.1825 41.2977H39.0451Z" fill="#989A9D"/>
<path d="M15 18.8L21 26L33 14" stroke="#989A9D" stroke-width="3"/>
</svg>
