<svg width="48" height="48" viewBox="0 0 48 48" fill="none" xmlns="http://www.w3.org/2000/svg">
<path d="M4.97718 42H9.03588V40.9061H6.29796V35.6354H4.97718V42ZM11.0937 42L11.5723 40.5331H13.8783L14.3569 42H15.774L13.5737 35.6354H11.8769L9.67661 42H11.0937ZM11.908 39.4983L12.7004 37.0711H12.7502L13.5426 39.4983H11.908ZM20.4051 35.6354V39.6568C20.4051 40.3964 19.8892 40.9247 19.0967 40.9247C18.3043 40.9247 17.7853 40.3964 17.7853 39.6568V35.6354H16.4645V39.7686C16.4645 41.1609 17.5118 42.0901 19.0967 42.0901C20.6724 42.0901 21.729 41.1609 21.729 39.7686V35.6354H20.4051ZM28.0861 35.6354H26.7716V39.6754H26.7156L23.9373 35.6354H22.775V42H24.0958V37.9568H24.1455L26.9425 42H28.0861V35.6354ZM33.384 37.8543H34.7234C34.5432 36.3905 33.4337 35.5483 31.97 35.5483C30.2887 35.5483 29.0083 36.7417 29.0083 38.8177C29.0083 40.8905 30.267 42.087 31.97 42.087C33.586 42.087 34.5743 41.0148 34.7234 39.8401L33.384 39.8339C33.2535 40.5176 32.7127 40.9154 31.9886 40.9154C31.0128 40.9154 30.3509 40.1913 30.3509 38.8177C30.3509 37.4782 31.0066 36.72 31.998 36.72C32.7376 36.72 33.2783 37.1488 33.384 37.8543ZM35.6158 42H36.9366V39.3615H39.6932V42H41.0171V35.6354H39.6932V38.2707H36.9366V35.6354H35.6158V42Z" fill="#F11900"/>
<path d="M29.5556 10.2H31.7778C32.3671 10.2 32.9324 10.4318 33.3491 10.8444C33.7659 11.2569 34 11.8165 34 12.4V27.8C34 28.3835 33.7659 28.9431 33.3491 29.3556C32.9324 29.7682 32.3671 30 31.7778 30H16.2222C15.6329 30 15.0676 29.7682 14.6509 29.3556C14.2341 28.9431 14 28.3835 14 27.8V12.4C14 11.19 15 10.2 16.2222 10.2H18.4444V9.1C18.4444 8.80826 18.5615 8.52847 18.7699 8.32218C18.9783 8.11589 19.2609 8 19.5556 8C19.8502 8 20.1329 8.11589 20.3412 8.32218C20.5496 8.52847 20.6667 8.80826 20.6667 9.1V10.2H27.3333V9.1C27.3333 8.80826 27.4504 8.52847 27.6588 8.32218C27.8671 8.11589 28.1498 8 28.4444 8C28.7391 8 29.0217 8.11589 29.2301 8.32218C29.4385 8.52847 29.5556 8.80826 29.5556 9.1V10.2ZM27.3333 12.4H20.6667V13.5C20.6667 13.7917 20.5496 14.0715 20.3412 14.2778C20.1329 14.4841 19.8502 14.6 19.5556 14.6C19.2609 14.6 18.9783 14.4841 18.7699 14.2778C18.5615 14.0715 18.4444 13.7917 18.4444 13.5V12.4H16.2222V16.8H31.7778V12.4H29.5556V13.5C29.5556 13.7917 29.4385 14.0715 29.2301 14.2778C29.0217 14.4841 28.7391 14.6 28.4444 14.6C28.1498 14.6 27.8671 14.4841 27.6588 14.2778C27.4504 14.0715 27.3333 13.7917 27.3333 13.5V12.4ZM31.7778 19H16.2222V27.8H31.7778V19Z" fill="#F11900"/>
<path d="M22.48 26.355L24.3175 22.2H22V21H25.8625V21.855L23.98 26.355H22.48Z" fill="#F11900"/>
</svg>
