<svg width="48" height="48" viewBox="0 0 48 48" fill="none" xmlns="http://www.w3.org/2000/svg">
<path d="M7.10609 37.8543C7.07087 37.6222 6.99007 37.4213 6.86369 37.2514C6.73731 37.0794 6.57571 36.9479 6.37888 36.8567C6.18206 36.7655 5.96141 36.72 5.71693 36.72C5.38544 36.72 5.09539 36.8028 4.84677 36.9686C4.60022 37.1323 4.40858 37.3715 4.27184 37.6865C4.13717 38.0014 4.06984 38.3785 4.06984 38.8177C4.06984 39.2673 4.13821 39.6495 4.27495 39.9644C4.41169 40.2773 4.60333 40.5145 4.84988 40.6761C5.09642 40.8356 5.38337 40.9154 5.71072 40.9154C5.95105 40.9154 6.16859 40.8729 6.36334 40.788C6.55809 40.701 6.7197 40.5767 6.84815 40.4151C6.9766 40.2535 7.06258 40.0597 7.10609 39.8339L8.44242 39.8401C8.39062 40.2421 8.24767 40.614 8.01355 40.9558C7.77943 41.2977 7.46245 41.5722 7.06258 41.7794C6.66479 41.9845 6.20692 42.087 5.68896 42.087C5.11714 42.087 4.60747 41.9575 4.15996 41.6985C3.71452 41.4396 3.36438 41.0635 3.10954 40.5704C2.85678 40.0773 2.7304 39.4931 2.7304 38.8177C2.7304 38.1423 2.85782 37.558 3.11265 37.0649C3.36956 36.5718 3.72177 36.1958 4.16928 35.9368C4.6168 35.6778 5.12336 35.5483 5.68896 35.5483C6.17999 35.5483 6.62232 35.6395 7.01597 35.8218C7.40961 36.0041 7.73075 36.2693 7.97937 36.6174C8.23006 36.9634 8.38441 37.3757 8.44242 37.8543H7.10609ZM10.6851 42H9.3643V35.6354H10.6851V38.2707H13.4416V35.6354H14.7655V42H13.4416V39.3615H10.6851V42ZM20.1243 42H15.8418V35.6354H20.1119V36.7293H17.1626V38.2707H19.8912V39.3615H17.1626V40.9061H20.1243V42ZM25.3961 37.8543C25.3609 37.6222 25.2801 37.4213 25.1537 37.2514C25.0273 37.0794 24.8657 36.9479 24.6689 36.8567C24.4721 36.7655 24.2514 36.72 24.007 36.72C23.6755 36.72 23.3854 36.8028 23.1368 36.9686C22.8903 37.1323 22.6986 37.3715 22.5619 37.6865C22.4272 38.0014 22.3599 38.3785 22.3599 38.8177C22.3599 39.2673 22.4282 39.6495 22.565 39.9644C22.7017 40.2773 22.8934 40.5145 23.1399 40.6761C23.3865 40.8356 23.6734 40.9154 24.0008 40.9154C24.2411 40.9154 24.4586 40.8729 24.6534 40.788C24.8481 40.701 25.0097 40.5767 25.1382 40.4151C25.2666 40.2535 25.3526 40.0597 25.3961 39.8339L26.7325 39.8401C26.6807 40.2421 26.5377 40.614 26.3036 40.9558C26.0695 41.2977 25.7525 41.5722 25.3526 41.7794C24.9548 41.9845 24.497 42.087 23.979 42.087C23.4072 42.087 22.8975 41.9575 22.45 41.6985C22.0046 41.4396 21.6544 41.0635 21.3996 40.5704C21.1468 40.0773 21.0204 39.4931 21.0204 38.8177C21.0204 38.1423 21.1479 37.558 21.4027 37.0649C21.6596 36.5718 22.0118 36.1958 22.4593 35.9368C22.9068 35.6778 23.4134 35.5483 23.979 35.5483C24.47 35.5483 24.9124 35.6395 25.306 35.8218C25.6997 36.0041 26.0208 36.2693 26.2694 36.6174C26.5201 36.9634 26.6744 37.3757 26.7325 37.8543H25.3961ZM28.9751 42H27.6543V35.6354H28.9751V38.4572H29.059L31.3712 35.6354H32.9592L30.588 38.4852L32.9872 42H31.4023L29.6433 39.3709L28.9751 40.182V42ZM37.9046 42H33.6221V35.6354H37.8921V36.7293H34.9429V38.2707H37.6715V39.3615H34.9429V40.9061H37.9046V42ZM41.1875 35.6354C41.8235 35.6354 42.3736 35.7628 42.8377 36.0176C43.3017 36.2704 43.6571 36.635 43.9036 37.1115C44.1522 37.5881 44.2765 38.1547 44.2765 38.8115C44.2765 39.4703 44.1522 40.039 43.9036 40.5176C43.655 40.9962 43.2966 41.3629 42.8283 41.6177C42.3622 41.8726 41.808 42 41.1657 42H38.9219V35.6354H41.1875ZM41.1098 40.8657C41.723 40.8657 42.184 40.6989 42.4927 40.3653C42.8014 40.0318 42.9558 39.5138 42.9558 38.8115C42.9558 38.1133 42.8014 37.5984 42.4927 37.2669C42.1861 36.9354 41.7272 36.7697 41.116 36.7697H40.2427V40.8657H41.1098Z" fill="#F11900"/>
<path d="M15 18.8L21 26L33 14" stroke="#F11900" stroke-width="3"/>
</svg>
