<svg width="48" height="48" viewBox="0 0 48 48" fill="none" xmlns="http://www.w3.org/2000/svg">
<path d="M8.93252 37.6367C8.69633 36.3191 7.65213 35.5483 6.36553 35.5483C4.73086 35.5483 3.54992 36.8039 3.54992 38.8177C3.54992 40.8315 4.73086 42.087 6.36553 42.087C7.65835 42.087 8.70255 41.3039 8.93252 40.0048H8.13694C7.95047 40.875 7.20462 41.3474 6.36553 41.3474C5.21567 41.3474 4.32064 40.4586 4.32064 38.8177C4.32064 37.1768 5.21567 36.288 6.36553 36.288C7.20462 36.288 7.95669 36.7604 8.13694 37.6367H8.93252ZM10.8281 42V39.1595H14.1969V42H14.9925V35.6354H14.1969V38.4634H10.8281V35.6354H10.0388V42H10.8281ZM20.2966 42V41.2977H17.1826V39.1595H20.048V38.4634H17.1826V36.3377H20.2531V35.6354H16.3933V42H20.2966ZM26.6337 37.6367C26.3975 36.3191 25.3533 35.5483 24.0667 35.5483C22.432 35.5483 21.2511 36.8039 21.2511 38.8177C21.2511 40.8315 22.432 42.087 24.0667 42.087C25.3595 42.087 26.4037 41.3039 26.6337 40.0048H25.8381C25.6516 40.875 24.9058 41.3474 24.0667 41.3474C22.9168 41.3474 22.0218 40.4586 22.0218 38.8177C22.0218 37.1768 22.9168 36.288 24.0667 36.288C24.9058 36.288 25.6579 36.7604 25.8381 37.6367H26.6337ZM28.5293 42V39.9489L29.3249 39.0539L31.5127 42H32.4761L29.8159 38.5069L32.4761 35.6354H31.4444L28.6101 38.7804H28.5293V35.6354H27.7399V42H28.5293ZM37.2331 42V41.2977H34.1192V39.1595H36.9845V38.4634H34.1192V36.3377H37.1896V35.6354H33.3298V42H37.2331ZM40.4936 35.6354H38.4362V42H40.4128C42.352 42 43.4459 40.7942 43.4459 38.8052C43.4459 36.8287 42.352 35.6354 40.4936 35.6354ZM39.2256 41.2977V36.3377H40.4438C41.9231 36.3377 42.6752 37.27 42.6752 38.8052C42.6752 40.3529 41.9231 41.2977 40.363 41.2977H39.2256Z" fill="#676A6D"/>
<path d="M15 18.8L21 26L33 14" stroke="#676A6D" stroke-width="3"/>
</svg>
