<svg width="48" height="48" viewBox="0 0 48 48" fill="none" xmlns="http://www.w3.org/2000/svg">
<path d="M22.4368 21.1447C22.0385 20.2734 21.4253 19.5175 20.6549 18.948C20.4852 18.7971 20.2495 18.618 19.9384 18.3823C19.071 17.7317 18.6562 17.1472 18.7127 16.6192C18.741 16.2182 18.9115 15.8404 19.1936 15.5539C19.3122 15.4203 19.4572 15.3128 19.6195 15.2382C19.7818 15.1635 19.9578 15.1233 20.1364 15.1202C20.5324 15.141 20.9118 15.2862 21.2206 15.535C21.6838 15.9066 22.0959 16.3378 22.4462 16.8172L24.3318 13.1592C23.8376 12.5034 23.2154 11.9549 22.5028 11.547C21.8487 11.1826 21.1113 10.9942 20.3626 11.0001C19.6664 11.0047 18.9797 11.1635 18.3521 11.4651C17.7245 11.7667 17.1715 12.2036 16.7329 12.7443C15.663 14.0069 15.0283 15.5805 14.9227 17.2321C14.8028 18.0934 14.9235 18.9712 15.2715 19.7682C15.7566 20.6468 16.4413 21.3992 17.2703 21.9649L17.506 22.144C18.5336 22.9266 19.0239 23.662 18.9579 24.3408C18.9279 24.7914 18.7372 25.2162 18.4205 25.5381C18.2727 25.6893 18.0947 25.8077 17.8982 25.8857C17.7017 25.9636 17.4909 25.9994 17.2797 25.9907C16.709 25.985 16.1571 25.7855 15.7146 25.425C15.1224 24.9073 14.6275 24.2879 14.2533 23.596L12 27.3106C12.4335 28.2342 13.0797 29.0419 13.8856 29.6676C14.6131 30.1904 15.4882 30.4678 16.384 30.4596C17.1884 30.4883 17.9897 30.3451 18.7344 30.0395C19.479 29.7338 20.1499 29.2727 20.7021 28.6871C21.881 27.3871 22.5825 25.7247 22.6914 23.9731C22.8317 23.0234 22.7444 22.054 22.4368 21.1447Z" fill="#131414"/>
<path d="M35.1835 11.5H30.5921L21.9277 30.026H25.9064L27.5657 26.5283H32.3457L32.5625 30.026H36.2772L35.1835 11.5ZM29.3382 22.4082L31.2238 18.1656C31.3086 17.9865 31.4217 17.6942 31.5632 17.3171C31.7046 16.94 31.8743 16.4874 32.0534 15.9783C32.0534 16.2706 32.0534 16.5911 32.0534 16.9211C32.0534 17.2511 32.0534 17.6376 32.0534 18.0713L32.2608 22.4082H29.3382Z" fill="#F11900"/>
<path d="M12.3321 42L11.1231 39.7376H10.1162V42H8.79545V35.6354H11.2879C11.7644 35.6354 12.1736 35.7203 12.5154 35.8902C12.8573 36.0601 13.1173 36.3015 13.2955 36.6143C13.4757 36.9251 13.5658 37.2897 13.5658 37.7082C13.5658 38.1433 13.4695 38.5162 13.2768 38.827C13.0841 39.1357 12.8055 39.3677 12.4408 39.5231L13.7958 42H12.3321ZM10.1162 36.72V38.6685H11.0455C11.8203 38.6685 12.2077 38.3484 12.2077 37.7082C12.2077 37.385 12.1104 37.1395 11.9156 36.9717C11.7229 36.8039 11.4318 36.72 11.0423 36.72H10.1162ZM20.2251 42H18.8079L18.3293 40.5331H16.0203L15.5417 42H14.1246L16.3249 35.6354H18.0248L20.2251 42ZM17.1484 37.0711L16.3559 39.4983H17.9906L17.1981 37.0711H17.1484ZM22.2627 42H20.9419V35.6354H25.1374V36.7293H22.2627V38.2707H24.8577V39.3615H22.2627V42ZM27.3252 42H26.0044V35.6354H30.1999V36.7293H27.3252V38.2707H29.9202V39.3615H27.3252V42ZM35.1256 42H31.0669V35.6354H32.3877V40.9061H35.1256V42ZM40.2625 42H35.98V35.6354H40.25V36.7293H37.3008V38.2707H40.0294V39.3615H37.3008V40.9061H40.2625V42Z" fill="#F11900"/>
</svg>
